<?xml version="1.0" encoding="UTF-8" standalone="no"?>
<!-- Created with Inkscape (http://www.inkscape.org/) -->

<svg
   width="104mm"
   height="14mm"
   viewBox="0 0 104 14"
   version="1.1"
   id="svg38477"
   inkscape:version="1.1.1 (3bf5ae0d25, 2021-09-20)"
   sodipodi:docname="puurivi.svg"
   xmlns:inkscape="http://www.inkscape.org/namespaces/inkscape"
   xmlns:sodipodi="http://sodipodi.sourceforge.net/DTD/sodipodi-0.dtd"
   xmlns="http://www.w3.org/2000/svg"
   xmlns:svg="http://www.w3.org/2000/svg">
  <sodipodi:namedview
     id="namedview38479"
     pagecolor="#94eaaa"
     bordercolor="#666666"
     borderopacity="1.0"
     inkscape:pageshadow="2"
     inkscape:pageopacity="0"
     inkscape:pagecheckerboard="0"
     inkscape:document-units="mm"
     showgrid="false"
     fit-margin-top="0"
     fit-margin-left="0"
     fit-margin-right="0"
     fit-margin-bottom="0"
     inkscape:zoom="3.7543719"
     inkscape:cx="267.02203"
     inkscape:cy="30.630956"
     inkscape:window-width="1920"
     inkscape:window-height="1112"
     inkscape:window-x="-8"
     inkscape:window-y="-8"
     inkscape:window-maximized="1"
     inkscape:current-layer="layer1" />
  <defs
     id="defs38474" />
  <g
     inkscape:label="Layer 1"
     inkscape:groupmode="layer"
     id="layer1"
     transform="translate(-58.582213,-160.63032)">
    <path
       style="fill:#ffffff;stroke-width:0.105833;fill-opacity:1"
       d="m 58.215,174.32851 v -0.29601 h 1.27 1.27 l 0.01757,-1.13771 c 0.01694,-1.09714 0.01526,-1.56491 -0.0071,-1.95791 -0.0064,-0.11273 -0.09541,-0.18521 -0.227438,-0.18521 -0.553344,0 -1.27415,-0.65852 -1.482227,-1.35414 -0.07008,-0.23428 -0.103162,-0.98852 -0.08219,-1.87378 0.03091,-1.30504 0.06515,-1.54272 0.287263,-1.99388 0.63672,-1.29334 2.03647,-1.58355 3.081976,-0.639 0.650946,0.58809 0.780758,1.07551 0.787537,2.95708 l 0.0058,1.61431 -0.322159,0.45949 c -0.209142,0.29831 -0.512285,0.55232 -0.864115,0.72409 -0.527739,0.25764 -0.543758,0.27899 -0.610723,0.81401 -0.03782,0.30218 -0.03523,1.00635 0.0058,1.56481 l 0.07453,1.0154 0.964181,-0.0302 0.964181,-0.0302 0.05777,-0.47625 c 0.107678,-0.88766 0.488564,-1.27 1.265144,-1.27 0.274608,0 0.588225,0.0744 0.728738,0.17277 0.293216,0.20538 0.641508,0.9267 0.644771,1.33535 l 0.0023,0.29104 h 1.164166 1.164167 v -2.32833 -2.32833 h -0.260613 c -0.509451,0 -1.471635,-0.45125 -1.983915,-0.93043 -0.968119,-0.90556 -1.537027,-2.63771 -1.275633,-3.88391 0.28586,-1.36285 1.113427,-2.47623 2.229365,-2.99932 0.513388,-0.24065 0.744268,-0.28259 1.555379,-0.28259 1.042034,0 1.383615,0.0997 2.229609,0.65091 0.560864,0.36542 1.19789,1.19334 1.412798,1.83617 0.06811,0.20373 0.152635,0.73936 0.187833,1.19028 0.05594,0.7167 0.02658,0.9349 -0.233373,1.73402 -0.163554,0.50279 -0.446395,1.11016 -0.628534,1.34972 -0.428835,0.56403 -1.311238,1.08873 -2.087927,1.24153 l -0.615822,0.12116 v 1.50484 c 0,0.82767 0.0308,1.86922 0.06845,2.31457 l 0.06845,0.80971 h 1.312669 1.312669 l -0.03174,-0.60854 c -0.02827,-0.5421 -0.05815,-0.61229 -0.27367,-0.64286 -0.373528,-0.053 -1.0408,-0.75564 -1.188879,-1.25193 -0.168463,-0.5646 -0.07045,-1.06898 0.309712,-1.59378 0.910468,-1.25686 2.799915,-0.93534 3.293574,0.56046 0.267652,0.811 -0.170628,1.7553 -1.001327,2.15744 l -0.483233,0.23393 v 0.57264 0.57264 h 1.947563 1.947564 l 0.107788,-0.3092 c 0.05928,-0.17006 0.254443,-0.43987 0.433686,-0.59957 0.299119,-0.26652 0.325899,-0.34547 0.325899,-0.9608 0,-0.36874 -0.02599,-0.67043 -0.05777,-0.67043 -0.03177,0 -0.277213,0.11683 -0.545428,0.25961 -0.366746,0.19523 -0.536115,0.23367 -0.683069,0.15502 -0.32131,-0.17196 -0.223306,-0.41001 0.254387,-0.6179 0.692278,-0.30128 1.109182,-0.82724 1.044062,-1.31717 -0.0067,-0.0504 -0.202824,0.0805 -0.435825,0.29105 -0.467328,0.4222 -0.643243,0.46489 -0.891719,0.21642 -0.252153,-0.25216 -0.213306,-0.31613 0.40324,-0.66409 0.617912,-0.34873 1.017951,-0.77664 1.017951,-1.08888 0,-0.23126 -0.164306,-0.26089 -0.285783,-0.0515 -0.14299,0.24642 -0.893629,0.70081 -1.157736,0.70081 -0.457635,0 -0.29796,-0.37169 0.349714,-0.81406 0.654938,-0.44732 0.932028,-0.7756 1.032508,-1.22324 0.08647,-0.3852 -0.112948,-0.37727 -0.50256,0.02 -0.359318,0.36637 -0.788308,0.49884 -0.983416,0.30367 -0.176688,-0.17675 -0.09715,-0.28897 0.488939,-0.68982 0.569383,-0.38943 0.903226,-0.74206 0.997558,-1.05369 0.102702,-0.33928 -0.08562,-0.38307 -0.365622,-0.085 -0.278014,0.29593 -0.737769,0.35502 -0.737769,0.0948 0,-0.20445 1.271588,-1.6302 1.455208,-1.63163 0.07276,-5.6e-4 0.132292,0.0395 0.132292,0.0891 0,0.0496 0.284835,0.41279 0.632967,0.80715 0.348131,0.39435 0.607258,0.75861 0.575837,0.80945 -0.107559,0.17403 -0.451701,0.0925 -0.78182,-0.18532 -0.376896,-0.31714 -0.467279,-0.29006 -0.366893,0.10991 0.04299,0.17129 0.261289,0.40881 0.560776,0.61015 0.269711,0.18133 0.621352,0.45065 0.781425,0.59849 0.66698,0.61602 0.08462,0.75238 -0.752865,0.17629 -0.29617,-0.20373 -0.563451,-0.37042 -0.593959,-0.37042 -0.03051,0 -0.05547,0.13784 -0.05547,0.30631 0,0.33147 0.256768,0.64096 1.089276,1.31292 0.556447,0.44913 0.665072,0.81494 0.241996,0.81494 -0.163575,0 -0.433142,-0.17692 -0.745475,-0.48925 -0.269087,-0.26909 -0.506766,-0.47149 -0.528176,-0.44979 -0.02141,0.0217 -0.01389,0.16979 0.01671,0.32908 0.05292,0.27548 0.478155,0.72144 1.142359,1.19803 0.209533,0.15034 0.282068,0.27307 0.234561,0.39687 -0.114599,0.29864 -0.47776,0.20293 -0.977364,-0.25759 l -0.473886,-0.43681 v 0.42254 c 0,0.49983 0.239314,0.84347 0.907609,1.30327 0.45869,0.31559 0.579514,0.54821 0.356375,0.68611 -0.19062,0.11782 -0.608312,-0.045 -1.001659,-0.39031 l -0.376557,-0.33062 0.0189,0.74873 c 0.01812,0.71799 0.03142,0.75392 0.323843,0.87504 0.343936,0.14247 0.829827,0.67134 0.829827,0.90323 0,0.12882 0.289845,0.14853 1.825625,0.12417 l 1.825625,-0.029 -0.01387,-0.26459 c -0.0076,-0.14552 -0.01954,-1.35457 -0.02646,-2.68677 l -0.01259,-2.42219 -0.524633,0.49073 c -0.575795,0.53859 -0.901432,0.62098 -1.016867,0.25728 -0.05658,-0.17827 -0.01448,-0.27105 0.178077,-0.39247 0.138695,-0.0875 0.502204,-0.40378 0.807798,-0.70294 0.502165,-0.49159 0.555625,-0.58833 0.555625,-1.0054 v -0.46147 l -0.453798,0.44536 c -0.302958,0.29734 -0.547131,0.44537 -0.734587,0.44537 -0.541486,0 -0.495219,-0.37228 0.0851,-0.6848 0.572242,-0.30818 1.10328,-0.95054 1.10328,-1.33458 v -0.32544 l -0.442384,0.37866 c -0.455325,0.38974 -0.795862,0.47392 -1.018116,0.25166 -0.2033,-0.2033 -0.158822,-0.26947 0.43754,-0.65096 0.662281,-0.42365 1.02296,-0.84472 1.02296,-1.19423 0,-0.33143 -0.05808,-0.31808 -0.550152,0.12648 -0.440035,0.39754 -0.58062,0.41756 -0.765204,0.10894 -0.09338,-0.15613 -0.05745,-0.22974 0.203562,-0.41703 0.65725,-0.47164 1.111794,-0.99222 1.111794,-1.27333 0,-0.36435 -0.151045,-0.35046 -0.440068,0.0405 -0.159833,0.21618 -0.325762,0.3175 -0.519992,0.3175 -0.377999,0 -0.488338,-0.36596 -0.185849,-0.6164 0.117819,-0.0975 0.470532,-0.43833 0.783805,-0.7573 l 0.569589,-0.57994 0.795841,0.84369 c 0.800972,0.84913 0.942829,1.13673 0.621499,1.26004 -0.119909,0.046 -0.318166,-0.0832 -0.635,-0.41387 l -0.460659,-0.48077 v 0.32948 c 0,0.44684 0.297392,0.82931 0.93992,1.20882 0.538575,0.3181 0.687932,0.60917 0.374341,0.72951 -0.283143,0.10865 -0.351068,0.0785 -0.84254,-0.37457 -0.261828,-0.24135 -0.503635,-0.41122 -0.53735,-0.37751 -0.03371,0.0337 -0.008,0.22271 0.05707,0.41998 0.131097,0.39723 0.5935,0.87345 1.199179,1.23501 0.412302,0.24613 0.512007,0.49962 0.237888,0.60481 -0.266398,0.10223 -0.618446,-0.041 -1.087393,-0.4424 -0.391745,-0.33532 -0.446953,-0.35626 -0.446953,-0.16955 0,0.44225 0.22142,0.75473 0.942412,1.33 0.49887,0.39804 0.72334,0.6447 0.682814,0.75031 -0.111497,0.29055 -0.556912,0.17088 -1.047672,-0.28148 -0.261828,-0.24135 -0.504605,-0.41026 -0.539506,-0.37536 -0.104999,0.105 0.05436,0.73823 0.278096,1.10503 0.115332,0.18908 0.493626,0.54626 0.840653,0.79375 0.663792,0.47338 0.761924,0.64561 0.457161,0.80236 -0.26751,0.13758 -0.441197,0.0524 -1.005416,-0.49328 l -0.502709,-0.48616 v 2.72123 2.72123 h 2.052544 2.052544 l 0.04488,-0.87312 c 0.02468,-0.48022 0.03258,-0.89012 0.01755,-0.91088 -0.01503,-0.0208 -0.184962,0.11112 -0.377628,0.29307 -0.372678,0.35195 -0.748228,0.39586 -0.805705,0.0942 -0.02236,-0.11734 0.124096,-0.27733 0.422253,-0.46128 0.251065,-0.15489 0.516013,-0.35699 0.588774,-0.44911 0.12395,-0.15693 0.191506,-0.86787 0.08247,-0.86787 -0.0274,0 -0.261787,0.14941 -0.520853,0.33202 -0.518579,0.36552 -0.805158,0.34914 -0.805158,-0.0461 0,-0.20105 0.132093,-0.31621 0.676406,-0.58973 0.5041,-0.25331 0.689081,-0.40619 0.726158,-0.60015 0.06144,-0.3214 0.05189,-0.32131 -0.42733,0.004 -0.516202,0.35077 -0.975234,0.35833 -0.975234,0.0161 0,-0.18678 0.103225,-0.29505 0.415584,-0.43591 0.518551,-0.23383 0.917825,-0.65424 0.985734,-1.03789 0.07329,-0.41407 -0.09136,-0.46112 -0.287352,-0.0821 -0.165128,0.31933 -0.641302,0.64026 -0.94996,0.64026 -0.284327,0 -0.180856,-0.42844 0.174834,-0.72393 0.865098,-0.71868 1.036993,-0.93902 1.036993,-1.32924 0,-0.20955 -0.01821,-0.381 -0.04046,-0.381 -0.02226,0 -0.230966,0.1905 -0.4638,0.42333 -0.416465,0.41647 -0.691097,0.52389 -0.8173,0.31969 -0.111135,-0.17982 0.144649,-0.51487 0.731074,-0.95762 0.340162,-0.25683 0.587093,-0.53171 0.616679,-0.68647 0.07018,-0.36711 -0.02195,-0.40287 -0.259586,-0.10076 -0.218002,0.27715 -0.719102,0.36155 -0.719102,0.12113 0,-0.17461 1.131795,-1.60638 1.269818,-1.60638 0.150217,0 1.387798,1.55213 1.343553,1.68503 -0.07267,0.21829 -0.364672,0.17543 -0.694258,-0.1019 -0.242587,-0.20412 -0.331613,-0.23621 -0.331613,-0.11953 0,0.31488 0.135728,0.49823 0.646249,0.87299 0.463682,0.34037 0.748424,0.80193 0.591521,0.95883 -0.112654,0.11266 -0.526417,-0.0947 -0.948366,-0.47523 l -0.428031,-0.38603 0.07669,0.42334 c 0.05819,0.32118 0.228136,0.57724 0.704313,1.06118 0.618428,0.6285 0.789587,1.00257 0.458741,1.00257 -0.262687,0 -0.75309,-0.32729 -0.899045,-0.60001 -0.179375,-0.33516 -0.307909,-0.31017 -0.307909,0.0599 0,0.3187 0.500726,0.8586 1.012622,1.09183 0.285444,0.13006 0.378586,0.31051 0.259623,0.503 -0.145442,0.23533 -0.632728,0.15339 -0.961604,-0.16169 -0.253402,-0.24278 -0.310641,-0.26343 -0.310641,-0.11211 0,0.34239 0.215786,0.59345 0.737144,0.85764 0.583286,0.29558 0.667025,0.38697 0.574794,0.62732 -0.09525,0.24821 -0.4875,0.20499 -0.942621,-0.10386 l -0.401054,-0.27216 0.08237,0.66904 c 0.04531,0.36797 0.0725,1.06284 0.06043,1.54417 l -0.02195,0.87513 2.414816,-0.0285 2.414816,-0.0285 0.07505,-0.5251 c 0.06371,-0.44572 0.149757,-0.59368 0.569248,-0.97884 0.392177,-0.36008 0.481016,-0.50293 0.43035,-0.69199 -0.03511,-0.13103 -0.0645,-0.27263 -0.06529,-0.31467 -8.46e-4,-0.042 -0.241642,-0.17977 -0.535215,-0.30606 -0.975288,-0.41956 -1.486483,-1.27939 -1.489757,-2.50578 -0.0028,-1.02961 0.518689,-1.89419 1.369364,-2.27048 2.141033,-0.94708 4.137595,1.43378 3.056081,3.64432 -0.313327,0.64041 -0.833982,1.07881 -1.499459,1.26256 l -0.395666,0.10925 0.06734,0.54756 0.06734,0.54756 -0.505948,0.37145 c -0.426695,0.31327 -0.511095,0.43346 -0.538796,0.76729 l -0.03285,0.39584 h 2.320874 2.320876 l 0.05406,-0.34396 c 0.02974,-0.18917 0.0313,-0.49371 0.0035,-0.67676 -0.04002,-0.26324 -0.113176,-0.34532 -0.349999,-0.39268 -0.415541,-0.0831 -1.020933,-0.7215 -1.17645,-1.24057 -0.249776,-0.83368 0.205421,-1.8442 0.968218,-2.14941 0.928521,-0.37152 1.91128,-0.0835 2.363074,0.69262 0.360476,0.61921 0.424626,0.93518 0.290806,1.43216 -0.134139,0.49816 -0.784724,1.18808 -1.198346,1.2708 -0.282308,0.0565 -0.292143,0.0811 -0.292143,0.73312 v 0.67468 h 2.804582 2.80459 v -2.10136 -2.10136 l -0.70923,-0.0662 c -2.28947,-0.2138 -4.083007,-2.58598 -3.627195,-4.79745 0.204922,-0.99422 0.902955,-2.15645 1.572985,-2.61902 0.89087,-0.61504 1.35956,-0.74999 2.60469,-0.74999 1.12004,0 1.19465,0.0145 1.9683,0.38402 0.66207,0.31618 0.88846,0.49381 1.28146,1.00542 0.65344,0.85065 0.90405,1.37897 1.02958,2.1705 0.19982,1.25983 -0.3085,2.77936 -1.17948,3.52588 -0.49159,0.42133 -1.55751,0.97183 -2.08668,1.07767 l -0.32965,0.0659 0.0286,2.07654 0.0286,2.07654 h 1.905 1.905 l 0.0303,-0.3175 c 0.0281,-0.2945 -0.006,-0.329 -0.47625,-0.47625 -0.38513,-0.12071 -0.51463,-0.21593 -0.54039,-0.39735 -0.0453,-0.3189 0.20291,-0.39833 0.60116,-0.19239 0.17699,0.0915 0.34797,0.1664 0.37997,0.1664 0.13291,0 0.0389,-0.38909 -0.1535,-0.635 -0.26187,-0.33479 -0.26208,-0.49809 -10e-4,-0.92604 0.26035,-0.427 0.36583,-0.42914 0.75245,-0.0153 0.34112,0.36517 0.38689,0.63467 0.14829,0.87327 -0.0873,0.0873 -0.15875,0.26396 -0.15875,0.39254 0,0.22113 0.0315,0.23009 0.58209,0.16539 0.52401,-0.0616 0.58208,-0.0485 0.58208,0.13122 0,0.26819 -0.19825,0.41587 -0.6962,0.5186 -0.36828,0.076 -0.41879,0.12393 -0.44821,0.42546 l -0.0332,0.33982 h 0.80045 0.80046 l 0.006,-0.34396 c 0.003,-0.18917 6.4e-4,-0.9381 -0.006,-1.66427 -0.0105,-1.21988 -0.0306,-1.34555 -0.2643,-1.65198 -0.47415,-0.62164 -1.27813,-0.83331 -2.00754,-0.52854 -0.44325,0.1852 -0.69155,0.63928 -0.69155,1.26467 0,0.44045 -0.0221,0.47795 -0.32003,0.54339 -0.17602,0.0387 -0.46177,0.18955 -0.635,0.33532 -0.27881,0.2346 -0.31497,0.33157 -0.31497,0.84473 0,0.56997 -0.005,0.57914 -0.29104,0.54621 -0.27796,-0.032 -0.2898,-0.0569 -0.26352,-0.55468 0.0332,-0.62951 0.283,-1.08786 0.77195,-1.41664 0.27079,-0.18208 0.39677,-0.36937 0.48923,-0.72731 0.21297,-0.82443 1.09385,-1.51062 1.93922,-1.51062 0.4002,0 1.19749,0.32034 1.51748,0.60971 0.3852,0.34834 0.59918,0.93423 0.59918,1.64058 0,0.37173 0.031,1.11182 0.0688,1.64464 l 0.0688,0.96875 h 1.88915 1.88916 v -1.40391 -1.4039 l -0.54373,-0.19312 c -0.69141,-0.24557 -1.43037,-0.97338 -1.84365,-1.81583 -0.24071,-0.49066 -0.31897,-0.81277 -0.34683,-1.4274 -0.0527,-1.16334 0.23304,-1.85736 1.13703,-2.76135 0.86384,-0.86384 1.54195,-1.15449 2.69354,-1.15449 1.00408,0 1.6354,0.22504 2.29496,0.81804 0.59503,0.53498 0.89352,1.04129 1.0599,1.79784 0.0952,0.43298 0.17702,0.54625 0.56539,0.78301 0.67662,0.41248 0.95152,1.04541 0.88747,2.04336 -0.10133,1.57904 -0.97975,2.38711 -2.59679,2.38883 l -0.55563,5.9e-4 v 1.16417 1.16416 h 1.03639 1.03638 l 0.12342,-0.46145 c 0.18366,-0.68668 0.72783,-1.12605 1.39464,-1.12605 0.65646,0 1.10423,0.3798 1.29685,1.09998 l 0.13155,0.49185 2.06768,-0.0286 2.06768,-0.0286 0.0255,-1.34552 0.0255,-1.34552 -0.38495,0.26123 c -0.80599,0.54696 -2.28082,0.74829 -3.06902,0.41896 -0.32818,-0.13712 -0.36113,-0.18145 -0.2418,-0.32523 0.076,-0.0916 0.33184,-0.26476 0.56857,-0.38489 0.23673,-0.12013 0.64304,-0.36409 0.90291,-0.54214 l 0.47249,-0.32372 -0.3402,-0.0882 c -0.56711,-0.14695 -0.44271,-0.42446 0.37415,-0.83464 1.06321,-0.53389 1.91861,-1.75177 1.67545,-2.38542 -0.0545,-0.14194 -0.12735,-0.095 -0.37471,0.24136 -0.29043,0.39493 -1.07082,0.88973 -1.39168,0.88239 -0.23281,-0.005 -0.54947,-0.29031 -0.49039,-0.44134 0.0296,-0.0755 0.28589,-0.21857 0.56964,-0.3178 0.58287,-0.20385 1.36566,-0.90933 1.58686,-1.43013 0.0795,-0.18731 0.14313,-0.49687 0.14129,-0.68792 l -0.003,-0.34736 -0.23434,0.3175 c -0.37129,0.50305 -0.70271,0.77445 -1.10974,0.90878 -0.33079,0.10917 -0.39536,0.10067 -0.51892,-0.0683 -0.21271,-0.2909 -0.18207,-0.34389 0.34108,-0.5898 0.66195,-0.31115 1.38737,-1.21223 1.48156,-1.8403 0.055,-0.36696 0.11577,-0.47412 0.26873,-0.47412 0.12561,0 0.21766,0.0964 0.25257,0.26459 0.0302,0.14552 0.0777,0.3757 0.10544,0.51152 0.073,0.35673 0.82394,1.16887 1.38474,1.49752 0.57107,0.33467 0.60199,0.61871 0.0729,0.66989 -0.40493,0.0392 -0.61021,-0.0896 -1.1247,-0.70539 -0.405,-0.48476 -0.46154,-0.43244 -0.31648,0.29285 0.097,0.48508 0.90252,1.32746 1.57235,1.64435 0.31401,0.14854 0.59882,0.31523 0.63292,0.3704 0.0926,0.1498 -0.30162,0.32261 -0.73593,0.32261 -0.32621,0 -0.47478,-0.0925 -1.00825,-0.62761 -0.61452,-0.61644 -0.62456,-0.62162 -0.56383,-0.29105 0.18673,1.01632 1.05685,2.09297 1.97244,2.44063 0.53035,0.20137 0.59037,0.36389 0.19959,0.54041 -0.1272,0.0575 -0.23128,0.13926 -0.23128,0.18178 0,0.0907 0.95874,0.81372 1.45521,1.09742 0.18918,0.10811 0.34396,0.25435 0.34396,0.32498 0,0.20633 -1.11404,0.38513 -1.88508,0.30256 -0.80798,-0.0865 -1.1287,-0.20643 -1.53138,-0.5725 l -0.29438,-0.26761 0.0298,1.37237 0.0298,1.37237 4.15396,0.0277 4.15395,0.0277 v -0.95373 c 0,-0.93098 -0.006,-0.95373 -0.24913,-0.95373 -0.28689,0 -0.8092,-0.44076 -0.8092,-0.68286 0,-0.21406 0.0871,-0.20703 0.67916,0.0549 0.39899,0.1765 0.60746,0.20457 1.08032,0.14549 l 0.58591,-0.0732 -0.36379,-0.38362 c -0.20009,-0.21099 -0.50874,-0.59793 -0.68588,-0.85986 -0.57766,-0.85417 -0.87984,-1.06949 -1.59148,-1.13402 -0.60428,-0.0548 -0.63892,-0.0734 -0.69918,-0.37463 -0.10619,-0.53097 -0.0712,-1.23116 0.0796,-1.59203 0.32488,-0.77753 1.43532,-1.37427 2.14947,-1.15509 0.3289,0.10094 0.34527,0.0911 0.50268,-0.3023 0.24929,-0.62304 0.98274,-1.32516 1.53998,-1.4742 1.02351,-0.27374 2.4599,0.35687 3.03046,1.33046 0.15799,0.2696 0.34841,0.73533 0.42315,1.03495 0.0747,0.29963 0.20814,0.73527 0.29644,0.96811 0.0883,0.23283 0.16264,0.58314 0.16519,0.77847 0.007,0.52263 -0.28901,1.56933 -0.56841,2.01101 -0.38098,0.60226 -1.17658,1.27304 -1.92571,1.6236 l -0.68471,0.32042 0.0307,0.80825 0.0307,0.80825 0.91676,0.0304 0.91676,0.0304 0.0701,-0.34794 c 0.0386,-0.19137 0.0913,-0.42406 0.11715,-0.51709 0.0522,-0.18753 0.47573,-0.41294 0.77596,-0.41294 0.11524,0 0.24673,-0.12767 0.32426,-0.31484 0.184,-0.44423 0.96315,-1.12948 1.45016,-1.27539 0.77645,-0.23263 1.70769,0.22826 2.25698,1.11702 0.12534,0.20281 0.25358,0.64799 0.2951,1.02448 l 0.0734,0.66582 1.97993,0.0288 1.97994,0.0288 0.0309,-2.0179 0.0309,-2.0179 -0.26459,-0.0543 c -1.40166,-0.28753 -1.93535,-0.55426 -2.34719,-1.17307 -0.4198,-0.63078 -0.54069,-1.04116 -0.48929,-1.66098 0.0938,-1.13071 1.04986,-2.48428 2.09485,-2.96573 0.36345,-0.16745 0.69127,-0.22004 1.37663,-0.22083 0.80039,-9.2e-4 0.96209,0.0336 1.46637,0.3129 0.65437,0.36245 1.27967,1.02941 1.61549,1.72311 0.29658,0.61267 0.325,1.80772 0.0553,2.32716 -0.49158,0.94691 -1.26828,1.47964 -2.32763,1.5965 l -0.65082,0.0718 v 2.01083 2.01084 h 1.21529 1.21529 l 0.0644,-0.39653 c 0.0712,-0.43814 0.35624,-0.81873 0.617,-0.8239 0.0928,-0.002 0.29337,-0.2088 0.44561,-0.45992 0.71543,-1.18008 2.70023,-1.20382 3.32153,-0.0397 0.11642,0.21812 0.26754,0.39672 0.33584,0.39687 0.29307,6.4e-4 0.77712,0.55576 0.84279,0.9665 l 0.0668,0.41773 0.85895,-0.0305 0.85895,-0.0305 0.0286,-0.635 0.0286,-0.635 -0.55773,-0.26569 c -0.6884,-0.32793 -1.24692,-1.08159 -1.24332,-1.67773 0.003,-0.46835 0.30336,-1.1491 0.64662,-1.46466 0.5676,-0.5218 1.4648,-0.69739 2.13423,-0.41769 0.81422,0.3402 1.359,1.47543 1.12126,2.33648 -0.13061,0.47301 -0.71786,1.15039 -1.15391,1.33101 -0.3045,0.12613 -0.31636,0.15635 -0.31636,0.80612 v 0.67507 h 0.84667 0.84666 v 0.29104 0.29105 l -52.22875,0.005 -52.228752,0.005 v -0.29601 z m 19.376156,-0.29601 c 0.451486,0 0.521784,-0.12956 0.239524,-0.44146 -0.228218,-0.25217 -0.5137,-0.24552 -0.777347,0.0181 -0.257738,0.25774 -0.28706,0.58074 -0.04426,0.48757 0.09207,-0.0353 0.35401,-0.0642 0.582083,-0.0642 z m -12.179489,-0.42333 c 0,-0.51038 -0.287734,-0.84667 -0.724431,-0.84667 -0.165603,0 -0.374615,0.0833 -0.464471,0.18521 -0.189862,0.21524 -0.339034,0.81847 -0.241444,0.97638 0.03685,0.0596 0.373756,0.10841 0.748675,0.10841 h 0.681671 z m 51.595703,0.20554 c 0.0631,-0.19889 -0.0352,-2.85953 -0.1086,-2.93813 -0.0174,-0.0186 -0.22481,0.0647 -0.46096,0.18521 -0.23616,0.12047 -0.55033,0.21905 -0.69817,0.21905 h -0.2688 v 1.37583 1.37583 h 0.7337 c 0.64763,0 0.74181,-0.0255 0.80283,-0.21779 z m 4.9193,-0.0516 c 0,-0.36582 -0.4427,-0.78894 -0.82545,-0.78894 -0.34752,0 -0.60691,0.2389 -0.71061,0.65449 -0.0666,0.2668 -0.0462,0.28663 0.33571,0.32617 1.09825,0.1137 1.20035,0.0974 1.20035,-0.19172 z m 16.1925,-0.42548 c 0,-0.70633 -0.12229,-1.10429 -0.33935,-1.10429 -0.0661,0 -0.20016,-0.0723 -0.29785,-0.16074 -0.15863,-0.14356 -0.21041,-0.14363 -0.48458,-6.4e-4 -0.16883,0.088 -0.41413,0.16038 -0.54509,0.16074 -0.26605,7.4e-4 -0.29415,0.20689 -0.16955,1.2442 l 0.0667,0.55562 h 0.88484 0.88484 v -0.69487 z m 5.23003,0.0572 c -0.06,-0.5307 -0.0404,-0.67275 0.11698,-0.84667 0.2307,-0.25491 0.55039,-0.26827 0.80945,-0.0338 0.2887,0.26127 0.24923,0.65558 -0.0781,0.78002 -0.21524,0.0818 -0.26466,0.16366 -0.23812,0.39426 0.0268,0.23296 0.0949,0.29799 0.34124,0.32609 0.16926,0.0193 0.46692,0.005 0.66145,-0.0313 0.31384,-0.0589 0.35364,-0.10458 0.35312,-0.40551 -0.002,-1.29194 -1.05538,-2.26927 -2.01634,-1.87122 -0.54953,0.22762 -0.81831,0.51081 -0.99785,1.05138 -0.16776,0.50507 -0.18783,0.52311 -0.61661,0.55429 -0.41481,0.0301 -0.44532,0.0542 -0.47636,0.37617 l -0.0332,0.34396 h 1.12321 1.12321 z m 14.50488,0.53672 c 0.0343,-0.0555 0.0326,-0.21949 -0.004,-0.36435 -0.0463,-0.1846 -0.14991,-0.27311 -0.34627,-0.29591 -0.21668,-0.0252 -0.33361,-0.14541 -0.51604,-0.53072 -0.29888,-0.63123 -0.65145,-0.86543 -1.30284,-0.86543 -0.7028,0 -1.19463,0.37937 -1.36403,1.05214 -0.10806,0.42914 -0.15348,0.48495 -0.35233,0.43295 -0.27467,-0.0718 -0.50387,0.0954 -0.50387,0.36774 0,0.18045 0.0924,0.19871 1.00542,0.19871 0.94004,0 1.00542,-0.014 1.00542,-0.21499 0,-0.11824 -0.0714,-0.2424 -0.15875,-0.2759 -0.35672,-0.13689 -0.0265,-1.09661 0.37737,-1.09661 0.17401,0 0.56073,0.22749 0.70405,0.41416 0.19544,0.25455 0.16223,0.43653 -0.12892,0.70636 -0.14552,0.13486 -0.26459,0.29273 -0.26459,0.35081 0,0.0581 0.27385,0.12279 0.60855,0.14379 0.33469,0.021 0.7367,0.0472 0.89333,0.0582 0.15664,0.011 0.31288,-0.0254 0.3472,-0.081 z m -85.055522,-1.88984 c 0.457207,-0.42709 0.618019,-1.02966 0.408577,-1.53093 -0.286683,-0.68612 -1.197209,-1.02031 -1.862523,-0.68358 -0.142067,0.0719 -0.368128,0.34504 -0.502359,0.60698 -0.206324,0.40262 -0.227591,0.53538 -0.137563,0.85876 0.12129,0.43566 0.54388,0.94041 0.78734,0.94041 0.133864,0 0.163803,-0.15105 0.163803,-0.82644 0,-0.96895 0.15915,-1.32763 0.456954,-1.02982 0.138674,0.13867 0.178046,0.3753 0.178046,1.07007 0,0.49061 0.04259,0.89202 0.09464,0.89202 0.05205,0 0.237941,-0.13386 0.413084,-0.29747 z m 26.105057,-0.3754 c 0.471855,-0.61863 0.28996,-1.58078 -0.362651,-1.91826 -0.170748,-0.0883 -0.5096,-0.16054 -0.753003,-0.16054 -0.369365,0 -0.500801,0.0618 -0.794784,0.37348 -0.612778,0.64973 -0.563398,1.40187 0.127731,1.94551 0.520498,0.40943 0.58874,0.32211 0.551018,-0.70503 -0.03211,-0.87425 -0.02152,-0.92782 0.189387,-0.95793 0.184729,-0.0264 0.234903,0.0378 0.289876,0.37042 0.03656,0.22127 0.067,0.67782 0.06765,1.01457 0.0011,0.57508 0.01376,0.60552 0.20853,0.50129 0.114051,-0.061 0.328363,-0.26962 0.47625,-0.46351 z m 62.617175,0.0503 c 0.36493,-0.36493 0.41084,-0.46849 0.41048,-0.92604 -6.7e-4,-0.87974 -0.61711,-1.52058 -1.46268,-1.52058 -0.57096,0 -1.28859,0.79664 -1.28859,1.43046 0,0.50393 0.60145,1.32121 0.9723,1.32121 0.17157,0 0.19187,-0.10453 0.19187,-0.98778 0,-0.54328 0.0266,-1.01435 0.0591,-1.04682 0.0325,-0.0325 0.15153,-0.0349 0.26458,-0.005 0.186,0.0487 0.20554,0.15316 0.20554,1.09974 0,0.70018 0.0391,1.04599 0.11828,1.04599 0.0651,0 0.30318,-0.18489 0.52917,-0.41088 z m -22.05791,-0.37414 c 0.33781,-0.19894 0.77307,-0.51814 0.96724,-0.70935 0.33416,-0.32907 0.86405,-1.2281 0.86405,-1.46598 0,-0.11589 -1.4326,0.8335 -2.19604,1.45533 -0.36817,0.29987 -0.44979,0.43126 -0.44979,0.72402 0,0.19672 0.0451,0.35767 0.10016,0.35767 0.0551,0 0.37656,-0.16276 0.71438,-0.36169 z m -1.3443,0.0707 c -0.002,-0.53778 -0.23941,-0.9909 -0.70715,-1.34805 -0.52007,-0.3971 -0.84846,-0.47062 -0.94763,-0.21218 -0.0867,0.22603 0.20773,0.65964 0.84315,1.24156 0.57956,0.53078 0.8126,0.62227 0.81163,0.31867 z m -12.55861,-0.14928 c 0.22296,-0.0559 0.57898,-0.26068 0.79116,-0.45513 0.36866,-0.33785 0.38759,-0.38925 0.4264,-1.1578 0.0274,-0.54285 0.002,-0.80425 -0.0768,-0.80425 -0.0646,0 -0.1174,0.0446 -0.1174,0.0991 0,0.0841 -0.68778,0.93523 -1.74804,2.16315 -0.14454,0.16739 -0.2628,0.32308 -0.2628,0.34598 0,0.0421 0.25023,-0.006 0.98747,-0.19106 z m 3.41351,-0.53864 c -0.33033,-0.3638 -0.82465,-0.94117 -1.0985,-1.28305 l -0.49789,-0.6216 -0.0313,0.76505 c -0.0233,0.56852 0.0128,0.83235 0.14037,1.02708 0.22413,0.34206 1.15634,0.77163 1.67736,0.77295 l 0.41058,0.001 -0.6006,-0.66145 z m -9.66015,0.27033 c 0.24803,-0.12499 0.91968,-0.99409 0.92015,-1.19063 2.1e-4,-0.0833 -2.47247,-0.004 -2.55758,0.0819 -0.0387,0.0391 -0.10325,0.3413 -0.14347,0.67154 l -0.0731,0.60044 0.30222,0.0422 c 0.45601,0.0637 1.21793,-0.0372 1.5518,-0.20545 z M 94.820837,170.4007 c 0.823076,-0.75447 0.854949,-2.39782 0.06189,-3.19088 -1.197676,-1.19767 -3.012723,-0.24912 -3.012723,1.57447 0,0.68789 0.34567,1.40268 0.835859,1.72844 0.532215,0.35369 0.645808,0.31505 0.645808,-0.21963 0,-0.4235 -0.05285,-0.51147 -0.690408,-1.14902 -0.484247,-0.48425 -0.670482,-0.74234 -0.623677,-0.86431 0.110732,-0.28856 0.340329,-0.19966 0.849252,0.32882 l 0.484105,0.5027 -0.06604,-0.58208 c -0.07728,-0.68116 0.04383,-0.96394 0.334797,-0.78169 0.13341,0.0836 0.193685,0.26847 0.206981,0.635 0.01032,0.28441 0.02222,0.56427 0.02646,0.62192 0.0042,0.0576 0.239563,-0.14476 0.522953,-0.44979 0.564623,-0.60775 0.701007,-0.6657 0.787574,-0.33467 0.06504,0.24873 -0.488872,0.93238 -1.000144,1.2344 -0.270302,0.15967 -0.302684,0.23675 -0.302684,0.72043 0,0.29789 0.02871,0.57033 0.0638,0.60542 0.09613,0.0961 0.591263,-0.11834 0.876205,-0.37953 z m 21.780173,-0.0267 c 0.18556,-0.14153 0.38817,-0.25732 0.45027,-0.25732 0.18394,0 0.12856,-0.48219 -0.0767,-0.66796 -0.17801,-0.1611 -0.22635,-0.1287 -0.78977,0.52929 -0.33009,0.3855 -0.57645,0.73927 -0.54747,0.78616 0.0722,0.11677 0.55578,-0.079 0.9637,-0.39017 z m -1.76517,-0.0435 c 0,-0.13474 -0.14165,-0.28343 -0.39688,-0.4166 -0.21828,-0.11389 -0.65648,-0.42279 -0.97377,-0.68643 -0.3173,-0.26364 -0.59465,-0.4616 -0.61635,-0.43991 -0.081,0.081 0.28771,0.65264 0.62859,0.97462 0.40066,0.37845 1.02899,0.77685 1.22612,0.77744 0.0728,2.1e-4 0.13229,-0.0939 0.13229,-0.20912 z M 61.39,170.2754 c 0,-0.0873 -0.04763,-0.15875 -0.105833,-0.15875 -0.05821,0 -0.105834,0.0714 -0.105834,0.15875 0,0.0873 0.04763,0.15875 0.105834,0.15875 0.05821,0 0.105833,-0.0714 0.105833,-0.15875 z m 78.08783,-1.04188 c 0.29525,-0.58873 0.39701,-0.70437 0.61986,-0.70437 0.21242,0 0.25113,0.0377 0.19038,0.18521 -0.0419,0.10186 -0.10171,0.28046 -0.13284,0.39687 -0.0516,0.19319 -0.0298,0.18891 0.25014,-0.049 0.53926,-0.45827 0.7819,-0.79042 0.78244,-1.07108 3.2e-4,-0.15037 -0.029,-0.30294 -0.0651,-0.33905 -0.14865,-0.14865 -2.26644,1.07844 -2.3874,1.3833 -0.0396,0.0999 -0.0754,0.41368 -0.0795,0.69727 -0.007,0.51069 -0.005,0.51414 0.23068,0.36042 0.13097,-0.0854 0.39709,-0.47218 0.59137,-0.85958 z M 62.277268,169.69301 62.66,169.26937 v -1.53953 c 0,-1.74748 -0.05178,-1.92008 -0.757108,-2.52382 -0.680114,-0.58215 -1.386751,-0.48986 -1.974972,0.25794 -0.336423,0.42769 -0.441704,1.02234 -0.44233,2.49837 l -5.9e-4,1.3911 0.323453,0.34626 c 0.320893,0.34352 0.32509,0.34462 0.530209,0.1395 0.217573,-0.21757 0.674591,-1.62754 0.527541,-1.62754 -0.04704,0 -0.140574,0.13097 -0.207858,0.29104 -0.06728,0.16007 -0.216532,0.41011 -0.331663,0.55563 -0.198189,0.2505 -0.217111,0.25446 -0.355561,0.0744 -0.176333,-0.22926 -0.09795,-0.6058 0.165229,-0.79371 0.316154,-0.22573 0.742502,-1.045 0.705483,-1.35563 -0.0338,-0.28366 -0.03479,-0.28324 -0.29947,0.12785 -0.161452,0.25077 -0.347581,0.41245 -0.4748,0.41245 -0.346709,0 -0.307293,-0.35093 0.08864,-0.78918 0.203953,-0.22575 0.451408,-0.53345 0.549899,-0.68376 0.09849,-0.15032 0.240456,-0.27331 0.315477,-0.27331 0.07502,0 0.367199,0.28558 0.649286,0.63461 0.282087,0.34903 0.548604,0.63478 0.59226,0.635 0.126387,6.2e-4 0.09189,0.36888 -0.04762,0.50839 -0.203481,0.20348 -0.282632,0.15596 -0.616164,-0.36997 l -0.315169,-0.49697 v 0.34518 c 0,0.43198 0.137769,0.70395 0.603627,1.19164 0.251877,0.26368 0.355807,0.46245 0.331446,0.63392 -0.05709,0.40185 -0.353641,0.36124 -0.632032,-0.0866 -0.248955,-0.40044 -0.250278,-0.401 -0.282837,-0.11932 -0.01799,0.15565 0.06535,0.47522 0.185209,0.71016 0.119856,0.23494 0.21792,0.50049 0.21792,0.59012 0,0.26435 0.162683,0.18993 0.569768,-0.26067 z m 53.908492,-0.46023 c 0.32813,-0.35048 0.42945,-0.39986 0.72276,-0.35226 0.38183,0.062 0.46318,-0.0751 0.46587,-0.78476 0.002,-0.44508 0.17658,-0.63289 0.87844,-0.94335 0.50407,-0.22298 0.5625,-0.33297 0.43315,-0.81543 -0.0594,-0.22154 -0.1067,-0.20083 -0.87168,0.3818 -0.44488,0.33884 -1.17797,0.96092 -1.62909,1.38242 l -0.82021,0.76636 0.004,0.651 0.004,0.65101 0.21604,-0.26459 c 0.11882,-0.14552 0.38777,-0.44801 0.59767,-0.6722 z m 21.93301,0.11658 c -3.1e-4,-0.37487 -0.0716,-0.67241 -0.21925,-0.91461 l -0.21885,-0.35899 -0.26233,0.56619 -0.26232,0.5662 0.4022,0.34444 c 0.22121,0.18945 0.43792,0.34623 0.48158,0.34842 0.0436,0.002 0.0792,-0.24606 0.079,-0.55165 z m -76.976179,-0.21167 c -0.02936,-0.0728 -0.05338,-0.0132 -0.05338,0.13229 0,0.14552 0.02402,0.20506 0.05338,0.13229 0.02936,-0.0728 0.02936,-0.19182 0,-0.26458 z m 53.693249,0.0214 c 0,-0.36083 -0.1919,-0.57178 -1.25933,-1.38439 -0.82691,-0.6295 -0.96386,-0.64642 -0.96107,-0.11869 0.002,0.36137 0.048,0.42413 0.51531,0.70144 0.28226,0.16751 0.74566,0.4865 1.02977,0.70887 0.28411,0.22236 0.55229,0.40678 0.59594,0.40981 0.0437,0.003 0.0794,-0.13964 0.0794,-0.31704 z m 37.02185,-0.02 c 0.41145,-0.15134 0.64565,-0.32192 0.87313,-0.63594 0.35383,-0.48845 0.39445,-0.66722 0.12564,-0.55294 -0.10186,0.0433 -0.44137,0.11657 -0.75447,0.1628 -0.31309,0.0462 -0.78934,0.19699 -1.05833,0.33502 -0.43062,0.22097 -0.49296,0.29707 -0.52158,0.63661 l -0.0325,0.38564 0.40293,-0.0622 c 0.2216,-0.0342 0.65594,-0.15525 0.96519,-0.269 z m -31.90838,-0.0476 c 0.26192,-0.1333 0.28953,-0.19262 0.22774,-0.4893 -0.22015,-1.05692 -1.28548,-1.45407 -1.9956,-0.74394 -0.22932,0.22931 -0.27645,0.37321 -0.27645,0.84409 0,0.51764 0.021,0.5678 0.23813,0.56929 0.1499,0.001 0.38292,-0.16561 0.62894,-0.44979 0.32987,-0.38103 0.42065,-0.43316 0.58209,-0.33425 0.28556,0.17495 0.2912,0.44397 0.0143,0.68494 l -0.24642,0.21448 0.26458,-0.0719 c 0.14552,-0.0396 0.39871,-0.14018 0.56264,-0.22361 z m 29.89729,-0.10913 c -0.0447,-0.53572 -0.53951,-0.87653 -1.27254,-0.87653 -0.28626,0 -0.61523,-0.0507 -0.73105,-0.1127 -0.34614,-0.18525 -0.42397,-0.0681 -0.21571,0.32461 0.23205,0.43759 1.34438,1.05597 1.9018,1.05727 0.33976,7.9e-4 0.34936,-0.0111 0.3175,-0.39265 z m -44.98873,0.0495 c 0.1204,-0.13097 0.41673,-0.54669 0.6585,-0.92382 0.24177,-0.37713 0.58357,-0.77686 0.75955,-0.88828 0.28981,-0.1835 0.33551,-0.18704 0.48498,-0.0376 0.14947,0.14947 0.12383,0.21387 -0.2721,0.68343 -0.57721,0.68453 -0.5582,0.82643 0.033,0.24623 0.65971,-0.64746 0.93926,-1.34176 0.9399,-2.33437 4.2e-4,-0.58962 -0.0592,-0.92714 -0.23159,-1.31245 -0.19557,-0.43707 -0.25243,-0.49379 -0.3613,-0.36037 -0.071,0.0871 -0.29588,0.2707 -0.49961,0.40804 -0.20373,0.13733 -0.7157,0.55756 -1.13771,0.93384 -0.61074,0.54456 -0.76729,0.74528 -0.76729,0.98379 0,0.42203 0.22196,0.37269 0.49792,-0.11068 0.35841,-0.62778 0.76959,-1.07133 0.99315,-1.07133 0.27859,0 0.26236,0.36323 -0.0293,0.65484 -0.16238,0.16238 -0.19122,0.24494 -0.0966,0.27649 0.0742,0.0247 0.18792,-0.008 0.25268,-0.0728 0.14397,-0.14397 1.0279,-0.15775 1.0279,-0.016 0,0.32558 -0.89272,0.74496 -1.58577,0.74496 -0.25863,0 -0.44621,0.10207 -0.75501,0.41088 -0.38652,0.38652 -0.41088,0.44875 -0.41088,1.04968 0,0.65031 0.0679,0.9736 0.20454,0.9736 0.0418,0 0.17458,-0.10715 0.29499,-0.23812 z m -1.94524,-0.0905 c -0.16261,-0.1626 -0.2886,-0.20184 -0.46664,-0.14534 -0.23451,0.0744 -0.23624,0.083 -0.0451,0.22275 0.10932,0.0799 0.31931,0.14534 0.46664,0.14534 h 0.26787 z m 0.91654,-0.6174 v -0.84016 l -0.66053,-0.87659 c -0.53298,-0.70732 -2.54367,-2.8406 -2.67736,-2.8406 -0.0185,0 -0.13224,0.26372 -0.25284,0.58605 -0.337573,0.90223 -0.305073,2.03682 0.0818,2.8545 0.36199,0.76516 0.94996,1.32195 1.39599,1.32195 0.17259,0 0.31158,-0.0357 0.30886,-0.0794 -0.003,-0.0437 -0.24174,-0.24606 -0.53114,-0.44979 -0.51585,-0.36314 -0.90901,-0.81267 -0.80326,-0.91843 0.0988,-0.0988 0.46985,0.0773 0.92924,0.4408 0.25091,0.19855 0.47577,0.34143 0.49968,0.31751 0.0239,-0.0239 -0.10423,-0.2737 -0.28478,-0.55506 -0.22236,-0.34653 -0.46593,-0.57231 -0.75494,-0.69982 -0.43757,-0.19306 -0.67626,-0.48754 -0.61758,-0.76194 0.0258,-0.12057 0.12146,-0.092 0.43045,0.12859 0.21852,0.15598 0.41961,0.2613 0.44687,0.23404 0.0844,-0.0844 -0.58601,-0.83152 -0.74604,-0.83152 -0.0831,0 -0.15105,-0.0952 -0.15105,-0.21167 0,-0.41585 0.72051,-0.19226 1.18316,0.36716 0.0978,0.11821 0.27722,0.51623 0.39881,0.88449 0.23986,0.7265 0.68656,1.48154 1.33742,2.26056 0.2279,0.27278 0.42627,0.499 0.44082,0.50271 0.0145,0.004 0.0265,-0.37132 0.0265,-0.8334 z m 32.0675,0.43109 c 0,-0.27627 -0.33849,-0.67609 -0.76838,-0.9076 -0.46527,-0.25056 -0.89549,-0.16048 -0.98767,0.20679 -0.10189,0.40597 0.0172,0.57979 0.40335,0.58884 0.19101,0.004 0.53778,0.0709 0.77062,0.14765 0.57455,0.18936 0.58208,0.1889 0.58208,-0.0357 z m 1.05357,-0.39068 0.44401,-0.58808 -0.45371,-0.49672 c -0.24954,-0.27319 -0.48917,-0.51189 -0.53251,-0.53045 -0.0908,-0.0389 -0.10596,1.60888 -0.018,1.9652 0.0323,0.13097 0.0717,0.23812 0.0875,0.23812 0.0158,0 0.22853,-0.26463 0.47273,-0.58807 z m -68.681073,0.16474 c 0,-0.26012 -0.04304,-0.31664 -0.238125,-0.31273 -0.130969,0.003 -0.381,0.0682 -0.555625,0.14577 l -0.3175,0.141 0.264583,0.10362 c 0.507359,0.19869 0.582942,0.22318 0.714375,0.23148 0.07829,0.005 0.132292,-0.12124 0.132292,-0.30914 z m 1.230148,0.14601 c 0.187415,-0.047 0.241629,-0.11628 0.198193,-0.25313 -0.03288,-0.10361 -0.09445,-0.39139 -0.136804,-0.63951 l -0.07701,-0.45113 -0.289762,0.43786 c -0.327937,0.49555 -0.403811,1.14381 -0.12118,1.03535 0.09272,-0.0356 0.284674,-0.0938 0.426566,-0.12944 z m -2.429593,-0.41059 c 0,-0.0883 -0.09413,-0.15875 -0.212153,-0.15875 -0.27087,0 -0.599236,-0.29475 -0.599236,-0.53789 0,-0.23382 0.484565,-0.62628 0.773248,-0.62628 0.118545,0 0.422523,0.21602 0.675507,0.48005 0.375828,0.39224 0.472351,0.44779 0.52765,0.30368 0.0988,-0.25747 -0.233775,-0.8002 -0.660795,-1.07835 -0.20409,-0.13294 -0.415728,-0.35916 -0.470305,-0.50271 -0.137476,-0.36159 -0.216198,-0.32615 -0.184249,0.083 0.0249,0.31884 -0.0134,0.36329 -0.524339,0.60855 -0.383615,0.18414 -0.534692,0.31285 -0.496904,0.42333 0.105843,0.30947 0.509853,0.82429 0.777103,0.99025 0.339707,0.21095 0.394473,0.21306 0.394473,0.0152 z m 3.871951,-0.18334 c 0.446763,-0.30955 0.537786,-0.55268 0.34586,-0.92382 -0.317418,-0.61382 -0.955434,-0.72336 -1.255409,-0.21554 -0.103225,0.17474 -0.154586,0.37126 -0.114136,0.43671 0.04407,0.0713 0.130468,-0.0164 0.215558,-0.21875 0.12407,-0.29508 0.185754,-0.33354 0.488192,-0.30443 0.30139,0.029 0.358696,0.084 0.442921,0.4249 0.165902,0.67148 -0.264968,0.94316 -0.763724,0.48156 l -0.257289,-0.23813 0.07771,0.37042 c 0.04274,0.20373 0.09744,0.40406 0.121566,0.44517 0.05697,0.0971 0.333615,-0.005 0.698755,-0.25809 z m 46.751667,-2.01557 0.58208,-0.49927 -0.49655,-0.47654 c -0.49872,-0.47862 -0.93868,-0.68134 -0.55244,-0.25454 0.11776,0.13012 0.18776,0.33815 0.16914,0.5027 -0.0499,0.4407 -0.23813,0.96864 -0.34544,0.96864 -0.0537,0 -0.0976,0.077 -0.0976,0.17109 0,0.12306 -0.064,0.15436 -0.22791,0.1115 -0.16585,-0.0434 -0.31713,0.0339 -0.55562,0.28381 -0.48173,0.50481 -0.9098,1.03186 -0.9098,1.12018 0,0.27072 0.24228,0.12396 0.99739,-0.60415 0.47008,-0.45328 1.11663,-1.04882 1.43678,-1.32342 z m 21.62384,1.8458 c 0.24333,-0.1651 0.69644,-0.43678 1.00693,-0.60374 0.52837,-0.28412 0.56043,-0.32399 0.50072,-0.62255 -0.0351,-0.17544 -0.10262,-0.35781 -0.15006,-0.40526 -0.0967,-0.0967 -1.73935,1.45761 -1.84575,1.74653 -0.0922,0.25038 -0.028,0.23526 0.48816,-0.11498 z m 12.1014,-0.33481 c 0.50853,-0.34925 0.98753,-0.635 1.06444,-0.635 0.0769,0 0.19467,0.1203 0.26166,0.26732 0.15903,0.34904 0.34129,0.28 0.38322,-0.14516 0.0318,-0.3222 -0.41365,-1.49799 -0.56748,-1.49799 -0.12995,0 -2.0054,1.61131 -2.07777,1.78513 -0.0824,0.19796 -0.11147,0.8607 -0.0377,0.8607 0.027,0 0.46514,-0.28575 0.97366,-0.635 z m -84.121342,0.0712 c 0.02224,-0.18784 -0.01628,-0.28288 -0.114653,-0.28288 -0.09435,0 -0.148141,0.11636 -0.148141,0.32044 0,0.39155 0.215644,0.36073 0.262794,-0.0376 z m 47.538602,0.0865 c 0,-0.14609 -0.10373,-0.34849 -0.23052,-0.44979 -0.7787,-0.62216 -1.25115,-1.13441 -1.25115,-1.35657 0,-0.4022 0.16741,-0.38391 0.57056,0.0623 l 0.38194,0.42276 0.002,-0.55593 c 0.002,-0.63796 0.10289,-0.85689 0.37123,-0.80446 0.30779,0.0601 0.62557,0.8049 0.62927,1.4748 l 0.003,0.59489 0.27688,-0.38141 c 0.15228,-0.20978 0.33087,-0.5481 0.39687,-0.75183 0.066,-0.20373 0.28525,-0.64426 0.48722,-0.97896 l 0.36722,-0.60854 -0.81701,0.001 c -0.65142,8.2e-4 -0.93499,0.0557 -1.3991,0.27081 -0.85904,0.39813 -1.69333,1.27383 -1.69333,1.77736 0,0.0851 0.29765,0.36756 0.66145,0.6277 0.36381,0.26014 0.75219,0.57389 0.86307,0.69721 0.26582,0.29562 0.38048,0.28314 0.38048,-0.0414 z m 35.03083,-0.19446 c 0,-0.45218 -0.0162,-0.47308 -0.94672,-1.21708 -0.52069,-0.41635 -0.96663,-0.757 -0.99096,-0.757 -0.0243,0 -0.17298,0.28685 -0.33032,0.63746 -0.33259,0.7411 -0.32672,1.0935 0.019,1.14261 0.19394,0.0275 0.23813,-0.0166 0.23813,-0.23813 0,-0.14957 0.0225,-0.27194 0.05,-0.27194 0.0275,0 0.44422,0.26015 0.92604,0.57812 0.48181,0.31797 0.91174,0.57991 0.9554,0.58209 0.0436,0.002 0.0794,-0.20308 0.0794,-0.45613 z m -14.01326,-0.29711 c -0.0918,-0.57405 -0.12614,-0.61864 -0.4765,-0.61864 -0.31941,0 -0.96872,0.38565 -1.04623,0.6214 -0.0289,0.0878 0.078,0.0522 0.2708,-0.0903 0.32219,-0.23821 0.76602,-0.22467 0.76602,0.0234 0,0.14977 0.31855,0.50391 0.45327,0.50391 0.0615,0 0.0746,-0.17712 0.0326,-0.43969 z m 2.32533,-0.77038 c -0.0548,-0.20165 -0.8961,-0.80076 -1.12444,-0.80076 -0.0546,0 -0.0993,0.13922 -0.0993,0.30938 0,0.30329 0.21673,0.63471 0.89226,1.36443 l 0.32483,0.35089 0.0331,-0.50263 c 0.0182,-0.27644 0.006,-0.60103 -0.0264,-0.72131 z m 14.33376,1.10424 c 0.12838,-0.083 0.11319,-0.1029 -0.0794,-0.10421 -0.13097,-8.9e-4 -0.23813,0.046 -0.23813,0.10421 0,0.1326 0.11232,0.1326 0.3175,0 z m -83.246951,-0.50271 c 0.142513,-0.27649 0.635787,-1.05039 1.096163,-1.71979 0.854979,-1.24316 1.113231,-1.44604 1.466964,-1.15247 0.08866,0.0736 0.0265,-0.088 -0.138117,-0.35895 -0.164619,-0.271 -0.323122,-0.49414 -0.352226,-0.49588 -0.0291,-0.002 -0.181597,0.19917 -0.338875,0.44645 -0.319862,0.50291 -0.534246,0.78261 -1.301541,1.69809 -0.932926,1.11309 -0.905455,1.06038 -0.831975,1.59647 0.03685,0.26884 0.08353,0.48879 0.103744,0.48879 0.02021,0 0.15335,-0.22622 0.295863,-0.50271 z m 70.378331,-0.73754 c 0.61119,-0.64954 0.62085,-0.66907 0.43339,-0.87622 -0.2568,-0.28376 -0.31372,-0.27265 -0.84866,0.1657 -0.50752,0.41587 -0.64535,0.78389 -0.52563,1.40342 0.0683,0.35323 0.0861,0.36961 0.19544,0.18003 0.0662,-0.11471 0.40164,-0.50753 0.74546,-0.87293 z m -73.498587,-0.0196 c 0.320045,-0.44946 0.291161,-0.75059 -0.07217,-0.7524 -0.160073,-7.9e-4 -0.405652,-0.0321 -0.545731,-0.0696 -0.24079,-0.0644 -0.250813,-0.0488 -0.183669,0.28695 0.07877,0.39387 0.337816,0.84242 0.486508,0.84242 0.0529,0 0.19468,-0.13832 0.31506,-0.30738 z m 5.679984,0.0379 c 0.0372,-0.14823 0.05002,-0.2821 0.02848,-0.29747 -0.02154,-0.0154 -0.29916,-0.008 -0.616927,0.0166 l -0.577758,0.0446 0.471925,0.23851 c 0.616601,0.31163 0.6155,0.31163 0.694285,-0.002 z m 32.016803,-0.77385 c -0.0627,-0.87412 -0.10114,-1.01477 -0.32687,-1.19755 -0.63915,-0.51756 -0.94404,-1.25816 -0.57607,-1.39936 0.22848,-0.0877 0.31187,-0.0211 0.58702,0.46843 0.26499,0.47148 0.39216,0.5367 0.35498,0.18205 -0.0137,-0.13097 -0.031,-0.53578 -0.0385,-0.89958 l -0.0135,-0.66146 h -0.32307 c -0.45925,0 -1.7936,0.31674 -1.7936,0.42576 0,0.0502 0.0956,0.25324 0.21233,0.45117 0.11678,0.19792 0.32623,0.69475 0.46544,1.10406 0.13922,0.40932 0.31269,0.85732 0.38549,0.99557 0.14654,0.27825 1.08755,1.57664 1.11812,1.54274 0.0106,-0.0118 -0.0127,-0.46709 -0.0518,-1.01183 z m -35.590486,-0.77717 -0.03534,-1.02679 -0.396875,-0.36332 c -0.320926,-0.2938 -0.396875,-0.43787 -0.396875,-0.75288 0,-0.21426 0.0493,-0.48168 0.109557,-0.59427 0.141367,-0.26415 -0.0093,-0.26115 -0.350103,0.007 -0.147999,0.11641 -0.316176,0.21166 -0.373725,0.21166 -0.167812,0 -0.752138,0.71935 -0.827173,1.01832 -0.121604,0.48451 0.439957,1.45105 1.388527,2.3899 l 0.846667,0.83799 0.03534,-0.3504 c 0.01944,-0.19271 0.01944,-0.81244 0,-1.37717 z m -0.91942,0.0431 c -0.262656,-0.13052 -0.449677,-0.36455 -0.719495,-0.90034 l -0.364587,-0.72397 0.190329,-0.38935 c 0.104681,-0.21414 0.273673,-0.40474 0.375537,-0.42357 0.151677,-0.028 0.185209,0.0438 0.185209,0.39688 0,0.30363 0.04483,0.43109 0.151618,0.43109 0.273607,0 0.316703,0.42481 0.06125,0.60374 -0.173485,0.12152 -0.200476,0.19137 -0.108826,0.28164 0.09109,0.0897 0.156264,0.0735 0.257991,-0.0642 0.129346,-0.17507 0.144412,-0.17506 0.303009,1.9e-4 0.166358,0.18382 0.393294,0.69092 0.393294,0.87884 0,0.14836 -0.325988,0.10748 -0.725326,-0.091 z m 84.525476,0.59362 c 0.18555,-0.15632 0.33735,-0.30331 0.33735,-0.32665 0,-0.0233 -0.27384,-0.1812 -0.60854,-0.3508 -1.04075,-0.52734 -2.26361,-0.40111 -3.14854,0.32502 -0.1599,0.13121 -0.17707,0.1879 -0.0702,0.23183 0.0778,0.032 0.44517,0.29092 0.81637,0.57543 0.37121,0.28451 0.69896,0.51729 0.72836,0.51729 0.0294,0 0.0245,-0.37576 -0.011,-0.83502 -0.0615,-0.79693 -0.0532,-0.84104 0.18143,-0.96659 0.21596,-0.11558 0.27017,-0.10149 0.44629,0.116 0.11492,0.14193 0.17751,0.33987 0.14668,0.46388 -0.0296,0.11898 -0.10562,0.42177 -0.16898,0.67289 -0.0634,0.25111 -0.0869,0.50236 -0.0523,0.55832 0.0571,0.0924 0.47648,-0.20099 1.40304,-0.9816 z m -36.95172,0.52233 c -0.0294,-0.0728 -0.0534,-0.0132 -0.0534,0.13229 0,0.14552 0.024,0.20506 0.0534,0.13229 0.0294,-0.0728 0.0294,-0.19182 0,-0.26458 z m 1.89036,-0.17723 c -0.0767,-0.24179 -0.26712,-0.30027 -0.26712,-0.0821 0,0.15064 0.22437,0.41415 0.29365,0.34488 0.0237,-0.0238 0.0118,-0.14202 -0.0265,-0.26282 z m 21.41387,-0.43131 c 0.02,-0.56544 -0.0873,-0.65185 -0.52128,-0.41961 -0.2916,0.15606 -0.25363,0.34507 0.11279,0.56152 0.17463,0.10316 0.3175,0.23249 0.3175,0.28741 0,0.0549 0.0163,0.0999 0.0361,0.0999 0.0199,0 0.0446,-0.23813 0.0549,-0.52917 z m -68.791576,-0.13873 c 0.413103,-0.48011 0.55439,-0.81377 0.344593,-0.81377 -0.05142,0 -0.118398,0.0953 -0.148842,0.21167 -0.03312,0.12664 -0.144358,0.21166 -0.276927,0.21166 -0.195334,0 -0.221575,-0.0627 -0.221575,-0.52916 0,-0.51725 -0.12505,-0.69587 -0.25326,-0.36176 -0.09943,0.2591 -0.07581,1.86554 0.02684,1.82578 0.0501,-0.0194 0.288221,-0.26439 0.529166,-0.54442 z m 2.270665,0.22872 c 0.293249,-0.15435 0.385369,-0.2962 0.313683,-0.48301 -0.04449,-0.11593 -0.108165,-0.0992 -0.296543,0.0777 -0.154396,0.14505 -0.264956,0.18481 -0.31022,0.11157 -0.101231,-0.16379 -0.236772,-0.14007 -0.31144,0.0545 -0.133467,0.34781 0.170019,0.46789 0.60452,0.23919 z m 33.658231,-0.75145 c 0.47611,-0.42201 0.97139,-0.83873 1.10061,-0.92604 0.2343,-0.1583 0.23438,-0.1595 0.0288,-0.42333 l -0.20617,-0.26459 -0.64554,0.68792 c -0.962,1.02515 -1.43752,1.69333 -1.20509,1.69333 0.034,0 0.4513,-0.34528 0.9274,-0.76729 z m 33.73836,0.10413 c -0.19782,-0.19782 -0.43765,0.006 -0.43416,0.3688 l 0.003,0.34728 0.26829,-0.30515 c 0.17878,-0.20333 0.23301,-0.34045 0.16252,-0.41093 z m -72.827507,0.34566 c 0,-0.0582 -0.04763,-0.10583 -0.105833,-0.10583 -0.05821,0 -0.105833,0.0476 -0.105833,0.10583 0,0.0582 0.04762,0.10584 0.105833,0.10584 0.05821,0 0.105833,-0.0476 0.105833,-0.10584 z m -0.3175,-0.24832 c 0,-0.13085 -0.350981,-0.70418 -0.431084,-0.70418 -0.111734,0 -0.134853,0.56295 -0.02753,0.67028 0.07195,0.0719 0.458611,0.10053 0.458611,0.0339 z m 35.925227,-0.73064 c -0.44271,-0.89901 -0.6346,-1.24354 -0.6926,-1.24354 -0.0347,0 -0.14397,0.0893 -0.24275,0.19846 -0.17143,0.18943 -0.15173,0.22541 0.43339,0.79161 0.33714,0.32624 0.62612,0.59413 0.64216,0.5953 0.0161,0.001 -0.047,-0.15265 -0.1402,-0.34183 z m -31.483877,-1.22468 c 0.178338,-0.0594 0.125344,-0.39348 -0.109864,-0.6925 -0.312191,-0.39689 -0.397368,-0.34731 -0.336169,0.19564 0.06244,0.55394 -0.121308,1.07842 -0.409902,1.17002 -0.244587,0.0776 -0.159454,0.26048 0.121274,0.26048 0.110933,0 0.261342,0.10716 0.334241,0.23813 0.120525,0.21653 0.139725,0.17585 0.21174,-0.44858 0.04356,-0.37768 0.128464,-0.70312 0.18868,-0.72319 z m 34.813557,0.48341 c 0.37327,-0.39315 0.65902,-0.73257 0.635,-0.75428 -0.14053,-0.12705 -0.93226,-0.47254 -1.15552,-0.50425 l -0.26397,-0.0375 -0.0304,1.04202 c -0.0167,0.5731 0.007,1.02554 0.0529,1.00541 0.0458,-0.0201 0.38872,-0.35826 0.76198,-0.75141 z m -36.075033,-0.27327 c 0.419333,-0.33955 0.18448,-1.39316 -0.31054,-1.39316 -0.37813,0 -0.752667,0.40782 -0.752667,0.81955 0,0.68809 0.553235,0.98657 1.063207,0.57361 z m -0.780985,-0.19372 c -0.130536,-0.13053 -0.072,-0.59909 0.09835,-0.78734 0.344503,-0.38067 0.921152,0.19144 0.6686,0.66334 -0.101925,0.19045 -0.617199,0.27376 -0.766955,0.124 z m 2.840447,0.28128 c 0.08518,-0.13783 -0.03785,-0.52822 -0.166468,-0.52822 -0.05428,0 -0.0987,0.14287 -0.0987,0.3175 0,0.31234 0.135709,0.42019 0.265169,0.21072 z"
       id="path38794" />
  </g>
</svg>
