<?xml version="1.0" encoding="UTF-8" standalone="no"?>
<!-- Created with Inkscape (http://www.inkscape.org/) -->

<svg
   version="1.1"
   id="svg2"
   width="700.03998"
   height="797.64001"
   viewBox="0 0 700.03998 797.64001"
   sodipodi:docname="Rastihaukkalogo-neg.eps"
   xmlns:inkscape="http://www.inkscape.org/namespaces/inkscape"
   xmlns:sodipodi="http://sodipodi.sourceforge.net/DTD/sodipodi-0.dtd"
   xmlns="http://www.w3.org/2000/svg"
   xmlns:svg="http://www.w3.org/2000/svg">
  <defs
     id="defs6">
    <linearGradient
       x1="0"
       y1="0"
       x2="1"
       y2="0"
       gradientUnits="userSpaceOnUse"
       gradientTransform="matrix(1388.87,0,0,1388.87,1930.7,-2758.98)"
       spreadMethod="pad"
       id="linearGradient36">
      <stop
         style="stop-opacity:1;stop-color:#ffffff"
         offset="0"
         id="stop30" />
      <stop
         style="stop-opacity:1;stop-color:#231f20"
         offset="0.320506"
         id="stop32" />
      <stop
         style="stop-opacity:1;stop-color:#231f20"
         offset="1"
         id="stop34" />
    </linearGradient>
  </defs>
  <sodipodi:namedview
     id="namedview4"
     pagecolor="#ffffff"
     bordercolor="#000000"
     borderopacity="0.25"
     inkscape:showpageshadow="2"
     inkscape:pageopacity="0.0"
     inkscape:pagecheckerboard="0"
     inkscape:deskcolor="#d1d1d1" />
  <g
     id="g8"
     inkscape:groupmode="layer"
     inkscape:label="ink_ext_XXXXXX"
     transform="matrix(1.3333333,0,0,-1.3333333,0,797.64)">
    <g
       id="g10"
       transform="scale(0.1)">
      <path
         d="m 2625.13,4374.82 c 81.92,157.02 156.83,276.84 223.62,265.78 123.45,-20.44 330.03,-229.56 420.24,-222.71 102.98,7.83 906.37,569.49 910.69,624.58 2.36,30.16 -351.41,-5.8 -542.31,-23.77 -255.35,-24.03 -447.24,-51.83 -609.29,108.03 -66.72,65.83 -123.97,96.48 -227.64,181.32 -84.02,68.77 -29.52,424.08 -20.19,661.73 0.27,6.9 -5.29,12.55 -12.19,12.55 h -142.93 -142.92 c -6.9,0 -12.47,-5.65 -12.2,-12.55 9.33,-237.65 63.84,-592.96 -20.19,-661.73 -103.66,-84.84 -160.92,-115.49 -227.64,-181.32 -162.04,-159.86 -353.93,-132.06 -609.28,-108.03 -190.91,17.97 -544.68,53.93 -542.31,23.77 4.32,-55.09 807.7,-616.75 910.69,-624.58 90.2,-6.85 296.78,202.27 420.23,222.71 66.79,11.06 141.7,-108.76 223.62,-265.78"
         style="fill:#ffffff;fill-opacity:1;fill-rule:nonzero;stroke:none"
         id="path12" />
      <path
         d="m 2625.13,2339.61 c -81.92,-157.03 -156.83,-276.85 -223.62,-265.79 -123.45,20.45 -330.03,229.57 -420.24,222.71 -102.98,-7.82 -906.36,-569.48 -910.69,-624.57 -2.36,-30.16 351.41,5.79 542.31,23.76 255.35,24.03 447.25,51.84 609.29,-108.03 66.72,-65.82 123.97,-96.48 227.64,-181.32 84.02,-68.77 29.52,-424.069 20.19,-661.729 -0.27,-6.891 5.29,-12.539 12.2,-12.539 h 142.92 142.92 c 6.9,0 12.47,5.648 12.2,12.539 -9.33,237.66 -63.84,592.959 20.19,661.729 103.66,84.84 160.92,115.5 227.64,181.32 162.04,159.87 353.94,132.06 609.28,108.03 190.91,-17.97 544.68,-53.92 542.31,-23.76 -4.32,55.09 -807.7,616.75 -910.68,624.57 -90.21,6.86 -296.79,-202.26 -420.24,-222.71 -66.79,-11.06 -141.7,108.76 -223.62,265.79"
         style="fill:#ffffff;fill-opacity:1;fill-rule:nonzero;stroke:none"
         id="path14" />
      <path
         d="m 3642.75,3357.21 c 157.03,-81.92 276.84,-156.83 265.78,-223.62 -20.44,-123.45 -229.56,-330.03 -222.71,-420.23 7.83,-102.99 569.49,-906.37 624.58,-910.69 30.16,-2.37 -5.8,351.4 -23.76,542.31 -24.04,255.35 -51.84,447.24 108.03,609.28 65.82,66.72 96.48,123.98 181.32,227.64 68.77,84.03 424.07,29.52 661.72,20.2 6.9,-0.28 12.55,5.29 12.55,12.19 v 142.92 142.93 c 0,6.9 -5.65,12.46 -12.55,12.19 -237.65,-9.33 -592.95,-63.83 -661.72,20.2 -84.84,103.66 -115.5,160.91 -181.32,227.63 -159.87,162.05 -132.07,353.94 -108.03,609.29 17.96,190.9 53.92,544.67 23.76,542.31 -55.09,-4.32 -616.75,-807.7 -624.58,-910.69 -6.85,-90.21 202.27,-296.79 222.71,-420.24 11.06,-66.78 -108.75,-141.7 -265.78,-223.62"
         style="fill:#ffffff;fill-opacity:1;fill-rule:nonzero;stroke:none"
         id="path16" />
      <path
         d="m 1607.51,3357.21 c -157.02,-81.92 -276.84,-156.83 -265.78,-223.62 20.44,-123.45 229.56,-330.03 222.71,-420.23 -7.83,-102.99 -569.487,-906.37 -624.581,-910.69 -30.156,-2.37 5.797,351.4 23.766,542.31 24.031,255.35 51.835,447.24 -108.031,609.28 -65.824,66.72 -96.481,123.98 -181.321,227.64 -68.765,84.03 -424.074,29.52 -661.7261,20.2 C 5.65234,3201.82 0,3207.39 0,3214.29 v 142.92 142.93 c 0,6.9 5.65234,12.46 12.5469,12.19 237.6521,-9.33 592.9611,-63.83 661.7261,20.2 84.84,103.66 115.497,160.91 181.321,227.63 159.866,162.05 132.062,353.94 108.031,609.29 -17.969,190.9 -53.922,544.67 -23.766,542.31 55.094,-4.32 616.751,-807.7 624.581,-910.69 6.85,-90.21 -202.27,-296.79 -222.71,-420.24 -11.06,-66.78 108.76,-141.7 265.78,-223.62"
         style="fill:#ffffff;fill-opacity:1;fill-rule:nonzero;stroke:none"
         id="path18" />
      <path
         d="M 3318.68,4050.76 V 2663.66 H 1931.58"
         style="fill:#f1511b;fill-opacity:1;fill-rule:nonzero;stroke:none"
         id="path20" />
      <path
         d="M 3318.68,4050.76 V 2663.66 H 1931.58"
         style="fill:none;stroke:#231f20;stroke-width:2.5;stroke-linecap:butt;stroke-linejoin:miter;stroke-miterlimit:10;stroke-dasharray:none;stroke-opacity:1"
         id="path22" />
      <path
         d="m 1931.58,2663.66 v 1387.1 h 1387.1"
         style="fill:#ffffff;fill-opacity:1;fill-rule:nonzero;stroke:none"
         id="path24" />
      <path
         d="m 1931.58,2663.66 v 1387.1 h 1387.1"
         style="fill:none;stroke:#100f0d;stroke-width:2.5;stroke-linecap:butt;stroke-linejoin:miter;stroke-miterlimit:10;stroke-dasharray:none;stroke-opacity:1"
         id="path26" />
      <path
         d="m 3318.68,4050.76 -1387.1,-1387.1 1387.1,1387.1"
         style="fill:#ffffff;fill-opacity:1;fill-rule:nonzero;stroke:none"
         id="path28" />
      <path
         d="M 3318.68,4050.76 1931.58,2663.66 Z"
         style="fill:none;stroke:url(#linearGradient36);stroke-width:2.5;stroke-linecap:butt;stroke-linejoin:miter;stroke-miterlimit:10;stroke-dasharray:none;stroke-opacity:1"
         id="path38" />
      <path
         d="m 327.773,298.07 h 54.004 c 16.797,0 34.2,0.481 52.2,1.45 18,0.96 34.558,4.07 49.679,9.359 15.117,5.269 27.594,13.551 37.438,24.84 9.836,11.269 14.761,27.472 14.761,48.59 0,18.25 -3.597,32.882 -10.8,43.929 -7.2,11.032 -16.68,19.551 -28.438,25.563 -11.769,5.988 -24.965,9.957 -39.601,11.879 -14.649,1.91 -29.407,2.879 -44.282,2.879 h -84.961 z m -60.476,224.641 h 130.32 c 24.477,0 48.832,-1.43 73.078,-4.313 24.231,-2.878 45.957,-9.117 65.16,-18.718 19.196,-9.61 34.793,-23.649 46.801,-42.121 11.992,-18.489 18,-43.571 18,-75.25 0,-37.43 -11.285,-67.668 -33.84,-90.707 C 544.25,268.551 513.051,253.91 473.219,247.668 L 617.934,12.9609 H 543.773 L 405.539,241.918 H 327.773 V 12.9609 H 267.297 V 522.711"
         style="fill:#ffffff;fill-opacity:1;fill-rule:nonzero;stroke:none"
         id="path40" />
      <path
         d="M 900.172,444.961 H 898.73 L 792.891,194.391 h 208.079 z m -27.359,77.75 h 56.878 L 1146.41,12.9609 h -70.56 L 1024.01,138.238 H 769.133 L 716.574,12.9609 H 648.176 L 872.813,522.711"
         style="fill:#ffffff;fill-opacity:1;fill-rule:nonzero;stroke:none"
         id="path42" />
      <path
         d="m 1456.01,432.711 c -10.08,16.32 -23.52,28.199 -40.32,35.648 -16.81,7.43 -34.33,11.161 -52.56,11.161 -13.45,0 -26.64,-1.692 -39.6,-5.04 -12.96,-3.371 -24.6,-8.41 -34.92,-15.128 -10.33,-6.723 -18.61,-15.59 -24.84,-26.641 -6.25,-11.039 -9.36,-24 -9.36,-38.871 0,-11.531 1.8,-21.719 5.4,-30.602 3.6,-8.886 9.47,-16.918 17.64,-24.117 8.16,-7.203 19.19,-13.93 33.12,-20.172 13.91,-6.238 30.96,-12.48 51.12,-18.719 19.67,-6.242 38.75,-12.96 57.24,-20.152 18.47,-7.199 34.8,-16.316 48.96,-27.367 14.15,-11.039 25.44,-24.832 33.84,-41.391 8.39,-16.57 12.6,-37.332 12.6,-62.281 0,-25.449 -5.04,-47.519 -15.12,-66.2382 -10.08,-18.7227 -23.4,-34.1992 -39.96,-46.4414 C 1442.69,24.1211 1423.61,15 1402.01,8.98828 1380.41,3 1358.09,0 1335.05,0 c -14.88,0 -29.77,1.32813 -44.64,3.94922 -14.89,2.65234 -29.16,6.73048 -42.84,12.24998 -13.68,5.5117 -26.53,12.711 -38.52,21.6016 -12,8.8789 -22.32,19.7969 -30.96,32.7578 l 51.84,42.4804 c 11.03,-18.7187 26.39,-32.8788 46.08,-42.4804 19.67,-9.6094 40.55,-14.3984 62.64,-14.3984 12.96,0 26.03,1.9101 39.24,5.7578 13.19,3.832 25.07,9.4726 35.64,16.9218 10.55,7.4415 19.19,16.668 25.92,27.7192 6.71,11.039 10.08,23.761 10.08,38.16 0,15.84 -2.64,28.679 -7.92,38.519 -5.29,9.832 -13.45,18.364 -24.48,25.563 -11.05,7.187 -24.97,13.679 -41.76,19.437 -16.81,5.75 -36.49,12.473 -59.04,20.16 -18.25,5.762 -35.05,12.352 -50.4,19.801 -15.37,7.43 -28.69,16.551 -39.96,27.36 -11.29,10.8 -20.16,23.761 -26.64,38.882 -6.48,15.118 -9.72,33.227 -9.72,54.36 0,24.48 4.79,45.828 14.4,64.078 9.59,18.23 22.55,33.48 38.88,45.723 16.31,12.238 34.8,21.476 55.44,27.718 20.63,6.231 42.23,9.36 64.8,9.36 28.8,0 55.08,-4.45 78.84,-13.321 23.76,-8.89 45,-24.371 63.72,-46.441 l -49.68,-43.207"
         style="fill:#ffffff;fill-opacity:1;fill-rule:nonzero;stroke:none"
         id="path44" />
      <path
         d="M 1956.41,466.559 H 1787.93 V 12.9609 h -60.48 V 466.559 h -168.48 v 56.152 h 397.44 v -56.152"
         style="fill:#ffffff;fill-opacity:1;fill-rule:nonzero;stroke:none"
         id="path46" />
      <path
         d="m 2027.68,522.711 h 60.48 V 12.9609 h -60.48 V 522.711"
         style="fill:#ffffff;fill-opacity:1;fill-rule:nonzero;stroke:none"
         id="path48" />
      <path
         d="m 2214.88,522.711 h 60.48 V 306.719 h 272.16 V 522.711 H 2608 V 12.9609 h -60.48 V 250.559 H 2275.36 V 12.9609 h -60.48 V 522.711"
         style="fill:#ffffff;fill-opacity:1;fill-rule:nonzero;stroke:none"
         id="path50" />
      <path
         d="m 2927.67,444.961 h -1.44 l -105.84,-250.57 h 208.08 z m -27.36,77.75 h 56.87 L 3173.9,12.9609 h -70.54 L 3051.5,138.238 H 2796.63 L 2744.07,12.9609 h -68.4 l 224.64,509.7501"
         style="fill:#ffffff;fill-opacity:1;fill-rule:nonzero;stroke:none"
         id="path52" />
      <path
         d="m 3623.91,207.359 c 0,-27.847 -3.48,-54.25 -10.44,-79.211 -6.97,-24.957 -18.01,-46.9175 -33.12,-65.8785 C 3565.23,43.3086 3545.43,28.1914 3520.95,16.918 3496.47,5.64063 3466.7,0 3431.67,0 c -35.04,0 -64.8,5.64063 -89.28,16.918 -24.48,11.2734 -44.28,26.3906 -59.41,45.3515 -15.11,18.961 -26.16,40.9215 -33.11,65.8785 -6.96,24.961 -10.44,51.364 -10.44,79.211 v 315.352 h 60.48 V 215.988 c 0,-20.636 2.16,-40.558 6.48,-59.75 4.32,-19.207 11.52,-36.25 21.59,-51.117 10.09,-14.8905 23.52,-26.7616 40.33,-35.6405 16.79,-8.8907 37.91,-13.3203 63.36,-13.3203 25.44,0 46.55,4.4296 63.36,13.3203 16.79,8.8789 30.24,20.75 40.32,35.6405 10.08,14.867 17.28,31.91 21.6,51.117 4.32,19.192 6.47,39.114 6.47,59.75 v 306.723 h 60.49 V 207.359"
         style="fill:#ffffff;fill-opacity:1;fill-rule:nonzero;stroke:none"
         id="path54" />
      <path
         d="m 3748.46,522.711 h 60.48 V 302.398 h 8.64 l 231.84,220.313 h 87.12 L 3884.55,290.16 4148.78,12.9609 h -88.56 L 3817.58,272.16 h -8.64 V 12.9609 h -60.48 V 522.711"
         style="fill:#ffffff;fill-opacity:1;fill-rule:nonzero;stroke:none"
         id="path56" />
      <path
         d="m 4395.02,444.961 h -1.44 l -105.84,-250.57 h 208.08 z m -27.36,77.75 h 56.88 L 4641.26,12.9609 H 4570.7 L 4518.85,138.238 H 4263.98 L 4211.42,12.9609 h -68.41 l 224.65,509.7501"
         style="fill:#ffffff;fill-opacity:1;fill-rule:nonzero;stroke:none"
         id="path58" />
      <path
         d="M 4984.69,466.559 H 4816.22 V 12.9609 h -60.49 V 466.559 h -168.48 v 56.152 h 397.44 v -56.152"
         style="fill:#ffffff;fill-opacity:1;fill-rule:nonzero;stroke:none"
         id="path60" />
    </g>
  </g>
</svg>
